# xmcd
#
# Track frame offsets: 
#        150
#        18800
#        36975
#        57937
#        76862
#        96625
#        115150
#        134662
#        154675
#        169925
#        188725
#
# Disc length: 2772 seconds
#
# Revision: 2
# Processed by: cddbd v1.5.2PL0 Copyright (c) Steve Scherf et al.
# Submitted via: ExactAudioCopy v0.90b4
#
DISCID=8e0ad20b
DTITLE=张信哲 Jeff Chang - 思念
DYEAR=1996
DGENRE=Pop
TTITLE0=早知道爱上你
TTITLE1=没有人知的故事
TTITLE2=祈祷
TTITLE3=背影
TTITLE4=朋友祝福
TTITLE5=自你往年离去
TTITLE6=如果你快乐
TTITLE7=该怎样爱
TTITLE8=感谢你
TTITLE9=如若我是他
TTITLE10=时差
EXTD=ID3G: 0
EXTT0=
EXTT1=
EXTT2=
EXTT3=
EXTT4=
EXTT5=
EXTT6=
EXTT7=
EXTT8=
EXTT9=
EXTT10=
PLAYORDER=
